<svg xmlns="http://www.w3.org/2000/svg" width="512" height="512"><path fill="#FFF" d="M293.751 455.868c-20.181 20.179-53.165 19.913-73.673-.595-20.508-20.508-20.773-53.493-.594-73.672l189.999-190c20.178-20.178 53.164-19.913 73.672.595 20.508 20.509 20.772 53.492.595 73.671L293.751 455.868z"/><path fill="#FFF" d="M220.249 455.868c20.18 20.179 53.164 19.913 73.672-.595 20.509-20.508 20.774-53.493.596-73.672l-190-190c-20.178-20.178-53.164-19.913-73.671.595-20.508 20.509-20.772 53.492-.595 73.671l189.998 190.001z"/></svg>